<?xml version="1.0" encoding="UTF-8"?>
<svg version="1.1" xmlns="http://www.w3.org/2000/svg" width="40" height="40">
<path d="M0 0 C1.67163195 0.65411685 3.34015202 1.31653318 5 2 C5.99 1.34 6.98 0.68 8 0 C12.63278267 -0.82418418 16.02726907 -0.59554955 20.0625 1.875 C22.82556259 6.33155256 23.07291118 9.89388254 22 15 C20.48628894 18.1805602 18.4486498 20.4885643 16 23 C15.19175781 23.8353125 14.38351563 24.670625 13.55078125 25.53125 C6.91339568 31.96028714 6.91339568 31.96028714 3.57421875 32.10546875 C-0.04324878 30.55198877 -2.45126797 28.05041759 -5.125 25.25 C-5.64964844 24.7240625 -6.17429687 24.198125 -6.71484375 23.65625 C-10.78717359 19.4911329 -14.41390786 15.61254226 -14.5 9.5 C-14.35615662 6.05351269 -13.98619187 4.97817425 -12.0625 1.9375 C-7.94193996 -0.66938492 -4.75526021 -0.70032014 0 0 Z " fill="#F68D8D" transform="translate(16,4)"/>
<path d="M0 0 C1.67163195 0.65411685 3.34015202 1.31653318 5 2 C5.99 1.34 6.98 0.68 8 0 C12.63278267 -0.82418418 16.02726907 -0.59554955 20.0625 1.875 C22.82556259 6.33155256 23.07291118 9.89388254 22 15 C20.48628894 18.1805602 18.4486498 20.4885643 16 23 C15.19175781 23.8353125 14.38351563 24.670625 13.55078125 25.53125 C6.91339568 31.96028714 6.91339568 31.96028714 3.57421875 32.10546875 C-0.04324878 30.55198877 -2.45126797 28.05041759 -5.125 25.25 C-5.64964844 24.7240625 -6.17429687 24.198125 -6.71484375 23.65625 C-10.78717359 19.4911329 -14.41390786 15.61254226 -14.5 9.5 C-14.35615662 6.05351269 -13.98619187 4.97817425 -12.0625 1.9375 C-7.94193996 -0.66938492 -4.75526021 -0.70032014 0 0 Z M-12 5 C-13.43744542 8.21742225 -13.43744542 8.21742225 -13 12 C-9.5712874 19.25551544 -3.63953858 25.57364095 3 30 C8.46859817 29.58537268 12.3284031 24.65134913 16 21 C19.85932139 16.36881433 21 12.93179261 21 7 C19.23535939 4.14006522 18.00434303 2.50217151 15 1 C11.58915179 0.7034045 9.62012782 0.64097863 6.625 2.375 C6.08875 2.91125 5.5525 3.4475 5 4 C5 4.66 5 5.32 5 6 C4.34 6 3.68 6 3 6 C2.67 5.01 2.34 4.02 2 3 C-3.32425253 -0.61288565 -7.74159156 0.38672419 -12 5 Z " fill="#CC4A4A" transform="translate(16,4)"/>
</svg>
